<svg width="146" height="44" viewBox="0 0 146 44" fill="none" xmlns="http://www.w3.org/2000/svg">
<path d="M89.1137 32.5053C79.6946 36.4166 69.497 38.3339 60.2335 38.3339C46.4551 38.3339 33.1437 34.6526 22.3233 28.4406C21.3892 27.9038 20.6886 28.9008 21.4671 29.591C31.4311 38.4105 44.6647 43.779 59.3772 43.779C69.8084 43.779 81.9521 40.4812 90.3593 34.4226C91.6826 33.4256 90.4371 31.8917 89.1137 32.5053Z" fill="#B4A6A2"/>
<path d="M83.8203 29.0541C83.1197 29.591 83.2754 30.2812 84.0539 30.2045C86.7006 29.8978 92.7724 29.2075 93.8622 30.588C94.9521 31.9684 92.6946 37.4902 91.6826 40.0211C91.3712 40.788 92.0718 41.0947 92.6946 40.5579C97.2096 36.8767 98.3772 29.0541 97.3652 27.9805C96.4311 26.6767 88.5688 25.7564 83.8203 29.0541Z" fill="#B4A6A2"/>
<path d="M100.168 19.6211C97.5988 18.1639 94.5628 17.7805 91.7605 17.8572L99.3892 7.12031C100.09 6.20001 100.479 5.58648 100.479 5.12633V2.36543C100.479 1.82859 100.09 1.59851 99.6227 1.59851H84.9102C84.4431 1.59851 84.1317 1.98197 84.1317 2.36543V5.58648C84.1317 6.12332 84.5209 6.3534 84.988 6.3534H92.6946L83.8203 18.7775C83.2754 19.5444 83.2754 20.4647 83.2754 21.0015V24.2993C83.2754 24.8361 83.8203 25.2963 84.2874 24.9895C89.2694 22.382 95.2634 22.612 99.7784 24.9895C100.323 25.2963 100.868 24.6827 100.868 24.2993V20.9248C100.868 20.388 100.713 20.0045 100.168 19.6211Z" fill="#B4A6A2"/>
<path d="M26.2155 25.7564H30.7305C31.2754 25.7564 31.5868 25.3729 31.5868 24.9895V13.0256C31.5868 10.418 31.4311 6.81353 34.7006 6.81353C37.8922 6.81353 37.4251 10.4947 37.4251 13.0256V24.9895C37.4251 25.4496 37.8144 25.7564 38.2036 25.7564H42.7185C43.2635 25.7564 43.5748 25.3729 43.5748 24.9895V13.0256C43.5748 11.7218 43.497 9.8045 44.0419 8.65413C44.509 7.50375 45.5988 6.81353 46.6886 6.81353C48.012 6.81353 49.0239 7.27368 49.2575 8.73082C49.491 9.65112 49.4132 12.0286 49.4132 12.9489V24.9128C49.4132 25.3729 49.8024 25.6797 50.1916 25.6797H54.7066C55.2515 25.6797 55.5629 25.2962 55.5629 24.9128V10.6481C55.5629 8.19398 55.8742 5.43307 54.3952 3.59247C53.1497 1.90525 51.0479 1.06165 49.2575 1.06165C46.6886 1.06165 44.1976 2.4421 43.1078 5.27969C41.8623 2.4421 40.1497 1.06165 37.3473 1.06165C34.6227 1.06165 32.5988 2.4421 31.509 5.27969H31.4311V2.36541C31.4311 1.90525 31.0419 1.67518 30.6527 1.59849H26.5269C25.982 1.59849 25.6706 1.98195 25.6706 2.36541V24.9128C25.4371 25.3729 25.7485 25.6797 26.2155 25.7564Z" fill="#B4A6A2"/>
<path d="M113.09 1.13831C106.629 1.13831 103.048 6.66011 103.048 13.6391C103.048 20.618 106.629 26.2165 113.09 26.2165C119.317 26.2165 123.287 20.6947 123.287 13.8691C123.365 6.81349 119.784 1.13831 113.09 1.13831ZM113.09 21.5383C109.587 21.5383 109.587 15.633 109.587 12.8721C109.587 10.1112 109.82 5.73981 113.09 5.73981C114.569 5.73981 115.503 6.35334 115.97 7.96387C116.515 9.72778 116.593 12.0285 116.593 13.9458C116.748 16.8601 116.593 21.5383 113.09 21.5383Z" fill="#B4A6A2"/>
<path d="M138.623 1.13831C135.509 1.13831 133.796 2.67214 132.551 5.73981H132.473V2.28868C132.395 1.90522 132.006 1.67515 131.695 1.67515H127.569C127.102 1.67515 126.79 2.05861 126.713 2.36537V24.9127C126.713 25.3729 127.102 25.6797 127.491 25.6797H131.928C132.473 25.6797 132.784 25.2962 132.784 24.9127V12.7954C132.784 11.2616 132.862 9.88116 133.485 8.50071C134.03 7.42703 135.042 6.7368 136.054 6.7368C139.168 6.7368 138.856 10.3413 138.856 12.7954V25.0661C138.934 25.4496 139.245 25.7563 139.635 25.7563H144.15C144.617 25.7563 144.928 25.4496 145.006 25.0661V10.8782C145.006 8.65409 145.006 5.66312 143.838 3.89921C142.593 1.82853 140.647 1.13831 138.623 1.13831Z" fill="#B4A6A2"/>
<path d="M72.5329 10.4947C69.9641 10.8015 66.6168 11.0316 64.1257 12.0286C61.3233 13.2556 59.3772 15.6331 59.3772 19.2376C59.3772 23.8391 62.2575 26.0632 66.0718 26.0632C69.2635 26.0632 70.976 25.3729 73.4671 22.8421C74.2455 23.9925 74.5569 24.5293 76.0359 25.7564C76.4251 25.9098 76.7365 25.9098 77.1257 25.6797C77.982 24.9128 79.6946 23.5323 80.5509 22.7654C80.9401 22.4586 80.8623 21.9985 80.5509 21.615C79.7724 20.4647 78.9162 19.621 78.9162 17.5504V10.7248C78.9162 7.81052 79.1497 5.12631 76.97 3.13232C75.3353 1.5218 72.3772 0.908264 70.1976 0.908264C65.9161 0.908264 61.2455 2.4421 60.2335 7.58045C60.1557 8.11729 60.5449 8.42405 60.8563 8.50075L65.0599 9.03759C65.5269 9.03759 65.7605 8.57744 65.8383 8.27067C66.2275 6.50676 67.7066 5.66315 69.4191 5.66315C70.3533 5.66315 71.3653 6.04661 71.988 6.81353C72.6108 7.73383 72.5329 8.9609 72.5329 10.0346V10.4947ZM71.5988 19.621C70.8982 20.8481 69.8084 21.615 68.485 21.615C66.7724 21.615 65.7605 20.3113 65.7605 18.394C65.7605 14.6361 69.1856 13.9459 72.4551 13.9459V14.8662C72.5329 16.7068 72.5329 18.1639 71.5988 19.621Z" fill="#B4A6A2"/>
<path d="M21.9341 21.615C21.1557 20.4647 20.2994 19.621 20.2994 17.5504V10.7248C20.2994 7.81052 20.5329 5.12631 18.3533 3.13232C16.6407 1.5218 13.7605 0.908264 11.5808 0.908264C7.29939 0.908264 2.62873 2.4421 1.61675 7.58045C1.53891 8.11729 1.92813 8.42405 2.23951 8.50075L6.59879 8.9609C7.06585 8.9609 7.29939 8.50075 7.37723 8.19398C7.76645 6.43007 9.2455 5.58646 11.0359 5.58646C11.97 5.58646 12.982 5.96992 13.6048 6.73684C14.2275 7.65714 14.1497 8.88421 14.1497 9.95789V10.4947C11.503 10.8015 8.15567 11.0316 5.66466 12.0286C2.86226 13.2556 0.916153 15.6331 0.916153 19.2376C0.916153 23.8391 3.79639 26.0632 7.61076 26.0632C10.8024 26.0632 12.515 25.3729 15.006 22.8421C15.7844 23.9925 16.0958 24.5293 17.5748 25.7564C17.9641 25.9098 18.2754 25.9098 18.6647 25.6797C19.5209 24.9128 21.2335 23.5323 22.0898 22.7654C22.3233 22.4586 22.2455 21.9985 21.9341 21.615ZM13.2156 19.621C12.515 20.8481 11.4251 21.615 10.1018 21.615C8.38921 21.615 7.45508 20.3113 7.45508 18.394C7.45508 14.6361 10.8802 13.9459 14.1497 13.9459V14.8662C13.994 16.7068 14.0718 18.1639 13.2156 19.621Z" fill="#B4A6A2"/>
</svg>
