<svg width="157" height="43" viewBox="0 0 157 43" fill="none" xmlns="http://www.w3.org/2000/svg">
<path d="M22.0145 39.3278C19.6642 39.7113 17.3139 39.8646 14.8069 40.1714L7.28596 18.5443V41.0917C4.93566 41.3218 2.82039 41.6285 0.548431 42.012V0.675171H6.8159L15.3553 24.1428V0.675171H22.0145V39.3278ZM35.0195 15.8601C37.6048 15.8601 41.522 15.7067 43.8723 15.7067V22.1489C40.9736 22.1489 37.5265 22.1489 35.0195 22.3022V31.8887C38.8583 31.6586 42.7755 31.3519 46.6926 31.1985V37.4105L28.4387 38.791V0.675171H46.6926V7.11728H35.0195C35.0195 7.19397 35.0195 15.8601 35.0195 15.8601ZM71.1358 7.19397H64.3199V36.8737C62.1263 36.8737 59.8543 36.8737 57.7391 36.9504V7.19397H50.9232V0.675171H71.2141C71.1358 0.675171 71.1358 7.19397 71.1358 7.19397ZM81.8688 15.4H90.8783V21.8421H81.8688V36.4902H75.3663V0.675171H93.777V7.11728H81.8688C81.8688 7.19397 81.8688 15.4 81.8688 15.4ZM104.51 30.815C108.27 30.8917 112.031 31.1985 115.713 31.3519V37.7173C109.837 37.3338 103.962 37.027 97.9292 36.8737V0.675171H104.51V30.815ZM121.275 38.1774C123.391 38.3308 125.584 38.4075 127.778 38.6376V0.675171H121.275V38.1774ZM156.608 0.675171L148.226 20.3083L156.608 41.9353C154.101 41.6286 151.673 41.1684 149.166 40.7849L144.465 28.821L139.608 39.7879C137.258 39.4045 134.907 39.2511 132.557 38.9443L141.018 20.0782L133.34 0.675171H140.391L144.7 11.4887L149.322 0.675171H156.608Z" fill="#B4A6A2"/>
</svg>
