<svg width="157" height="45" viewBox="0 0 157 45" fill="none" xmlns="http://www.w3.org/2000/svg">
<path d="M33.6876 8.8872C33.6876 8.65713 33.4526 8.58043 33.2959 8.50374C33.1392 8.50374 29.7705 8.27367 29.7705 8.27367C29.7705 8.27367 27.4202 5.97292 27.1851 5.74284C26.9501 5.51276 26.4017 5.58946 26.245 5.58946C26.245 5.58946 25.6966 5.74284 24.9132 5.97292C24.1297 3.74885 22.7979 1.75487 20.3693 1.75487H20.1342C19.4291 0.834569 18.5674 0.451111 17.8623 0.451111C12.2216 0.451111 9.55788 7.35337 8.69611 10.8812C6.5025 11.5714 4.93563 12.0316 4.77894 12.0316C3.60379 12.415 3.52545 12.415 3.36876 13.5654C3.21208 14.5624 0 38.8737 0 38.8737L24.9915 43.4752L38.5449 40.6376C38.4666 40.5609 33.766 9.11728 33.6876 8.8872ZM23.5813 6.43307C22.9546 6.66314 22.2495 6.81652 21.4661 7.0466V6.58645C21.4661 5.206 21.231 4.13231 20.9177 3.21201C22.1712 3.51878 23.0329 4.89923 23.5813 6.43307ZM19.4291 3.59547C19.7425 4.43908 19.9775 5.66615 19.9775 7.27667V7.50675C18.6457 7.89021 17.0788 8.35036 15.5903 8.81051C16.4521 5.74284 18.019 4.13231 19.4291 3.59547ZM17.7056 2.06164C17.9406 2.06164 18.1756 2.13833 18.4107 2.29171C16.6088 3.13532 14.6502 5.206 13.8668 9.42404C12.6916 9.8075 11.5165 10.1143 10.4197 10.4977C11.4381 7.27668 13.7101 2.06164 17.7056 2.06164Z" fill="#B4A6A2"/>
<path d="M33.3743 8.58042C33.2176 8.58042 29.8488 8.35035 29.8488 8.35035C29.8488 8.35035 27.4985 6.0496 27.2635 5.81952C27.1852 5.74283 27.0285 5.66614 26.8718 5.66614L24.9915 43.4752L38.5449 40.6376C38.5449 40.6376 33.766 9.19396 33.766 8.96388C33.6877 8.65712 33.531 8.58042 33.3743 8.58042Z" fill="#B4A6A2"/>
<path d="M20.3693 15.8662L18.7241 20.6978C18.7241 20.6978 17.2355 19.9309 15.4336 19.9309C12.77 19.9309 12.6916 21.5414 12.6916 21.9248C12.6916 24.1489 18.5674 24.9925 18.5674 30.2075C18.5674 34.2722 15.9037 36.9564 12.3783 36.9564C8.06938 36.9564 5.87576 34.3489 5.87576 34.3489L7.05091 30.6677C7.05091 30.6677 9.32287 32.585 11.2031 32.585C12.4566 32.585 12.9267 31.588 12.9267 30.8978C12.9267 27.9835 8.06938 27.8301 8.06938 23.0752C8.06938 19.0872 11.0464 15.176 16.9222 15.176C19.2725 15.2527 20.3693 15.8662 20.3693 15.8662Z" fill="white"/>
<path d="M54.2919 24.9925C52.9601 24.3023 52.255 23.6887 52.255 22.8451C52.255 21.7714 53.1951 21.0812 54.762 21.0812C56.4855 21.0812 58.0524 21.7714 58.0524 21.7714L59.3059 18.0902C59.3059 18.0902 58.1308 17.2466 54.8403 17.2466C50.2181 17.2466 46.9277 19.8542 46.9277 23.5354C46.9277 25.606 48.4162 27.2166 50.4531 28.3669C52.0983 29.2872 52.6467 29.9008 52.6467 30.8978C52.6467 31.8948 51.8633 32.6617 50.2964 32.6617C48.0245 32.6617 45.9092 31.5113 45.9092 31.5113L44.6557 35.1158C44.6557 35.1158 46.6143 36.4196 49.9047 36.4196C54.6836 36.4196 58.1307 34.1188 58.1307 29.9775C58.1307 27.7534 56.4072 26.1429 54.2919 24.9925ZM73.3294 17.2466C70.9791 17.2466 69.0988 18.3203 67.6886 20.0075H67.6103L69.6472 9.57746H64.3199L59.1492 36.1128H64.4766L66.2785 26.9865C66.9835 23.5354 68.7854 21.388 70.509 21.388C71.6841 21.388 72.1542 22.1549 72.1542 23.3053C72.1542 23.9955 72.0759 24.9158 71.9192 25.606L69.8822 36.0361H75.2096L77.3249 25.2993C77.5599 24.1489 77.7166 22.7684 77.7166 21.9248C77.6382 19.0105 76.0714 17.2466 73.3294 17.2466ZM89.7031 17.2466C83.279 17.2466 79.0484 22.9218 79.0484 29.2105C79.0484 33.2752 81.6338 36.4963 86.4127 36.4963C92.6802 36.4963 96.9107 30.9745 96.9107 24.5323C96.9107 20.7745 94.7171 17.2466 89.7031 17.2466ZM87.1178 32.4316C85.3159 32.4316 84.5325 30.8978 84.5325 29.0572C84.5325 26.0662 86.0993 21.1579 88.998 21.1579C90.8783 21.1579 91.505 22.7684 91.505 24.3023C91.505 27.5233 89.9381 32.4316 87.1178 32.4316ZM110.542 17.2466C106.939 17.2466 104.902 20.3143 104.902 20.3143H104.823L105.137 17.5534H100.436C100.201 19.4707 99.8094 22.3083 99.3393 24.4557L95.6572 43.5519H100.985L102.473 35.806H102.551C102.551 35.806 103.648 36.4963 105.685 36.4963C111.953 36.4963 116.026 30.2075 116.026 23.9188C116.026 20.3143 114.46 17.2466 110.542 17.2466ZM105.45 32.5083C104.04 32.5083 103.257 31.7414 103.257 31.7414L104.118 26.8331C104.745 23.612 106.469 21.388 108.349 21.388C109.994 21.388 110.464 22.8451 110.464 24.2256C110.464 27.7534 108.427 32.5083 105.45 32.5083ZM123.626 9.73084C121.902 9.73084 120.57 11.0346 120.57 12.7218C120.57 14.2557 121.589 15.3293 123.077 15.3293H123.156C124.801 15.3293 126.211 14.2557 126.289 12.3384C126.289 10.8045 125.271 9.73084 123.626 9.73084ZM116.183 36.0361H121.511L125.114 17.5534H119.787L116.183 36.0361ZM138.668 17.6301H134.986L135.142 16.7865C135.456 15.0226 136.552 13.412 138.276 13.412C139.216 13.412 140 13.6421 140 13.6421L141.018 9.57746C141.018 9.57746 140.078 9.11731 138.119 9.11731C136.239 9.11731 134.359 9.65415 132.87 10.8812C131.068 12.4151 130.207 14.5624 129.815 16.7865L129.658 17.6301H127.151L126.368 21.5414H128.875L126.054 36.1128H131.382L134.202 21.5414H137.884L138.668 17.6301ZM151.438 17.6301C151.438 17.6301 148.069 25.8361 146.58 30.2842H146.502C146.424 28.8271 145.17 17.6301 145.17 17.6301H139.529L142.742 34.579C142.82 34.9624 142.742 35.1925 142.663 35.4226C142.036 36.5729 141.018 37.7233 139.764 38.5669C138.746 39.2572 137.649 39.7173 136.787 40.0241L138.276 44.4722C139.373 44.2421 141.566 43.3985 143.525 41.6346C145.954 39.4105 148.226 35.9594 150.498 31.2812L157 17.6301H151.438Z" fill="#B4A6A2"/>
</svg>
