<svg aria-hidden="true" xmlns="http://www.w3.org/2000/svg" xmlns:xlink="http://www.w3.org/1999/xlink"><symbol viewBox="0 0 20 20" id="arrow-grey" xmlns="http://www.w3.org/2000/svg">
<path fill-rule="evenodd" clip-rule="evenodd" d="M0.249969 10C0.249969 9.44772 0.697685 9 1.24997 9H18.75C19.3023 9 19.75 9.44772 19.75 10C19.75 10.5523 19.3023 11 18.75 11H1.24997C0.697685 11 0.249969 10.5523 0.249969 10Z"/>
<path fill-rule="evenodd" clip-rule="evenodd" d="M9.29289 0.542832C9.68342 0.152308 10.3166 0.152308 10.7071 0.542832L19.4571 9.29283C19.8476 9.68336 19.8476 10.3165 19.4571 10.707L10.7071 19.457C10.3166 19.8476 9.68342 19.8476 9.29289 19.457C8.90237 19.0665 8.90237 18.4334 9.29289 18.0428L17.3358 9.99994L9.29289 1.95705C8.90237 1.56652 8.90237 0.933356 9.29289 0.542832Z"/>
</symbol><symbol viewBox="0 0 12 12" id="arrow-indigo" xmlns="http://www.w3.org/2000/svg">
<path fill-rule="evenodd" clip-rule="evenodd" d="M0.833334 6C0.833334 5.72386 1.05719 5.5 1.33333 5.5H10.6667C10.9428 5.5 11.1667 5.72386 11.1667 6C11.1667 6.27614 10.9428 6.5 10.6667 6.5H1.33333C1.05719 6.5 0.833334 6.27614 0.833334 6Z"/>
<path fill-rule="evenodd" clip-rule="evenodd" d="M5.64645 0.979821C5.84171 0.784558 6.15829 0.784558 6.35355 0.979821L11.0202 5.64649C11.2155 5.84175 11.2155 6.15833 11.0202 6.35359L6.35355 11.0203C6.15829 11.2155 5.84171 11.2155 5.64645 11.0203C5.45118 10.825 5.45118 10.5084 5.64645 10.3132L9.95956 6.00004L5.64645 1.68693C5.45118 1.49167 5.45118 1.17508 5.64645 0.979821Z"/>
</symbol><symbol viewBox="0 0 33 33" id="at-sign" xmlns="http://www.w3.org/2000/svg">
<path fill-rule="evenodd" clip-rule="evenodd" d="M16.5 12.1667C14.1068 12.1667 12.1667 14.1068 12.1667 16.5001C12.1667 18.8933 14.1068 20.8334 16.5 20.8334C18.8932 20.8334 20.8333 18.8933 20.8333 16.5001C20.8333 14.1068 18.8932 12.1667 16.5 12.1667ZM9.16667 16.5001C9.16667 12.45 12.4499 9.16675 16.5 9.16675C20.5501 9.16675 23.8333 12.45 23.8333 16.5001C23.8333 20.5502 20.5501 23.8334 16.5 23.8334C12.4499 23.8334 9.16667 20.5502 9.16667 16.5001Z"/>
<path fill-rule="evenodd" clip-rule="evenodd" d="M9.62815 1.95946C12.9101 0.408508 16.6202 0.0133852 20.1552 0.838344C23.6901 1.6633 26.8421 3.65982 29.0985 6.50327C31.3549 9.34672 32.5831 12.8699 32.5833 16.4998L32.5833 16.4999V17.9582C32.5833 19.5164 31.9644 21.0107 30.8626 22.1125C29.7608 23.2143 28.2665 23.8332 26.7083 23.8332C25.1502 23.8332 23.6559 23.2143 22.5541 22.1125C21.4523 21.0107 20.8333 19.5164 20.8333 17.9582V10.6666C20.8333 9.83815 21.5049 9.16658 22.3333 9.16658C23.1618 9.16658 23.8333 9.83815 23.8333 10.6666V17.9582C23.8333 18.7207 24.1362 19.452 24.6754 19.9912C25.2146 20.5303 25.9458 20.8332 26.7083 20.8332C27.4708 20.8332 28.2021 20.5303 28.7413 19.9912C29.2804 19.452 29.5833 18.7207 29.5833 17.9582V16.5C29.5833 16.5 29.5833 16.4999 29.5833 16.4999C29.5831 13.5471 28.584 10.6811 26.7485 8.3681C24.913 6.05504 22.349 4.43092 19.4734 3.75984C16.5978 3.08876 13.5797 3.41018 10.9099 4.67184C8.24018 5.9335 6.07572 8.0612 4.76851 10.709C3.4613 13.3567 3.08823 16.3688 3.70995 19.2555C4.33167 22.1422 5.91163 24.7337 8.19291 26.6085C10.4742 28.4834 13.3226 29.5315 16.2751 29.5822C19.2275 29.633 22.1103 28.6835 24.4547 26.8882C25.1124 26.3845 26.0539 26.5094 26.5576 27.1671C27.0613 27.8248 26.9364 28.7663 26.2787 29.27C23.3967 31.477 19.8529 32.6442 16.2235 32.5818C12.5941 32.5194 9.09247 31.231 6.28809 28.9262C3.48372 26.6214 1.54148 23.4357 0.7772 19.8871C0.0129178 16.3386 0.471537 12.6358 2.07849 9.38089C3.68544 6.12599 6.34621 3.51042 9.62815 1.95946Z"/>
</symbol><symbol viewBox="0 0 22 30" id="bar-chart" xmlns="http://www.w3.org/2000/svg">
<path fill-rule="evenodd" clip-rule="evenodd" d="M21 10.6666C21.5523 10.6666 22 11.1143 22 11.6666V28.3333C22 28.8856 21.5523 29.3333 21 29.3333C20.4477 29.3333 20 28.8856 20 28.3333V11.6666C20 11.1143 20.4477 10.6666 21 10.6666Z"/>
<path fill-rule="evenodd" clip-rule="evenodd" d="M11 0.666626C11.5523 0.666626 12 1.11434 12 1.66663V28.3333C12 28.8856 11.5523 29.3333 11 29.3333C10.4477 29.3333 10 28.8856 10 28.3333V1.66663C10 1.11434 10.4477 0.666626 11 0.666626Z"/>
<path fill-rule="evenodd" clip-rule="evenodd" d="M1 17.3334C1.55228 17.3334 2 17.7811 2 18.3334V28.3334C2 28.8857 1.55228 29.3334 1 29.3334C0.447715 29.3334 0 28.8857 0 28.3334V18.3334C0 17.7811 0.447715 17.3334 1 17.3334Z"/>
</symbol><symbol viewBox="0 0 33 33" id="codepen" xmlns="http://www.w3.org/2000/svg">
<path fill-rule="evenodd" clip-rule="evenodd" d="M15.6825 0.659083C16.1796 0.33597 16.8204 0.33597 17.3175 0.659083L31.9008 10.1382C32.3265 10.4149 32.5833 10.8882 32.5833 11.3959V21.6042C32.5833 22.112 32.3265 22.5852 31.9008 22.8619L17.3175 32.3411C16.8204 32.6642 16.1796 32.6642 15.6825 32.3411L1.09919 22.8619C0.673496 22.5852 0.416668 22.112 0.416668 21.6042V11.3959C0.416668 10.8882 0.673496 10.4149 1.09919 10.1382L15.6825 0.659083ZM3.41667 12.2099V20.7902L16.5 29.2944L29.5833 20.7902V12.2099L16.5 3.70578L3.41667 12.2099Z"/>
<path fill-rule="evenodd" clip-rule="evenodd" d="M16.5 20.1042C17.3284 20.1042 18 20.7758 18 21.6042V31.0834C18 31.9118 17.3284 32.5834 16.5 32.5834C15.6716 32.5834 15 31.9118 15 31.0834V21.6042C15 20.7758 15.6716 20.1042 16.5 20.1042Z"/>
<path fill-rule="evenodd" clip-rule="evenodd" d="M0.687819 10.5354C1.16289 9.85677 2.09819 9.69172 2.77686 10.1668L16.5 19.773L30.2231 10.1668C30.9018 9.69172 31.8371 9.85677 32.3122 10.5354C32.7873 11.2141 32.6222 12.1494 31.9435 12.6245L17.3602 22.8328C16.8437 23.1944 16.1563 23.1944 15.6398 22.8328L1.05647 12.6245C0.3778 12.1494 0.212747 11.2141 0.687819 10.5354Z"/>
<path fill-rule="evenodd" clip-rule="evenodd" d="M15.6398 10.1669C16.1563 9.80537 16.8437 9.80537 17.3602 10.1669L31.9435 20.3752C32.6222 20.8503 32.7873 21.7856 32.3122 22.4643C31.8371 23.143 30.9018 23.308 30.2231 22.8329L16.5 13.2267L2.77686 22.8329C2.09819 23.308 1.16289 23.143 0.687819 22.4643C0.212747 21.7856 0.3778 20.8503 1.05647 20.3752L15.6398 10.1669Z"/>
<path fill-rule="evenodd" clip-rule="evenodd" d="M16.5 0.416748C17.3284 0.416748 18 1.08832 18 1.91675V11.3959C18 12.2243 17.3284 12.8959 16.5 12.8959C15.6716 12.8959 15 12.2243 15 11.3959V1.91675C15 1.08832 15.6716 0.416748 16.5 0.416748Z"/>
</symbol><symbol viewBox="0 0 22 40" id="dollar-sign" xmlns="http://www.w3.org/2000/svg">
<path fill-rule="evenodd" clip-rule="evenodd" d="M11 0.666626C11.5523 0.666626 12 1.11434 12 1.66663V38.3333C12 38.8856 11.5523 39.3333 11 39.3333C10.4477 39.3333 10 38.8856 10 38.3333V1.66663C10 1.11434 10.4477 0.666626 11 0.666626Z"/>
<path fill-rule="evenodd" clip-rule="evenodd" d="M2.00144 9.33481C3.28294 8.05331 5.02102 7.33337 6.83333 7.33337H19.3333C19.8856 7.33337 20.3333 7.78109 20.3333 8.33337C20.3333 8.88566 19.8856 9.33337 19.3333 9.33337H6.83333C5.55145 9.33337 4.32208 9.8426 3.41565 10.749C2.50922 11.6555 2 12.8848 2 14.1667C2 15.4486 2.50922 16.678 3.41565 17.5844C4.32208 18.4908 5.55145 19 6.83333 19H15.1667C16.979 19 18.7171 19.72 19.9986 21.0015C21.2801 22.283 22 24.0211 22 25.8334C22 27.6457 21.2801 29.3838 19.9986 30.6653C18.7171 31.9468 16.979 32.6667 15.1667 32.6667H1C0.447715 32.6667 0 32.219 0 31.6667C0 31.1144 0.447715 30.6667 1 30.6667H15.1667C16.4485 30.6667 17.6779 30.1575 18.5844 29.2511C19.4908 28.3446 20 27.1153 20 25.8334C20 24.5515 19.4908 23.3221 18.5844 22.4157C17.6779 21.5093 16.4485 21 15.1667 21H6.83333C5.02102 21 3.28294 20.2801 2.00144 18.9986C0.719939 17.7171 0 15.979 0 14.1667C0 12.3544 0.719939 10.6163 2.00144 9.33481Z"/>
</symbol><symbol viewBox="0 0 33 33" id="dribbble" xmlns="http://www.w3.org/2000/svg">
<path fill-rule="evenodd" clip-rule="evenodd" d="M16.5 3.41675C9.27428 3.41675 3.41667 9.27436 3.41667 16.5001C3.41667 23.7258 9.27428 29.5834 16.5 29.5834C23.7257 29.5834 29.5833 23.7258 29.5833 16.5001C29.5833 9.27436 23.7257 3.41675 16.5 3.41675ZM0.416672 16.5001C0.416672 7.6175 7.61743 0.416748 16.5 0.416748C25.3826 0.416748 32.5833 7.6175 32.5833 16.5001C32.5833 25.3827 25.3826 32.5834 16.5 32.5834C7.61743 32.5834 0.416672 25.3827 0.416672 16.5001Z"/>
<path fill-rule="evenodd" clip-rule="evenodd" d="M10.6031 1.79602C11.2739 1.30989 12.2118 1.45959 12.6979 2.13039C15.0167 5.33006 16.8394 8.05772 18.3602 10.8245C21.2877 9.59502 23.6978 7.85728 25.7579 5.44821C26.2963 4.81861 27.2432 4.74469 27.8728 5.28311C28.5024 5.82153 28.5763 6.7684 28.0379 7.398C25.6728 10.1636 22.9294 12.1265 19.7305 13.5024C19.8189 13.689 19.9062 13.8764 19.9926 14.0648C20.2065 14.5312 20.4141 15.0031 20.6162 15.4825C23.7069 15.0427 27.2908 15.2623 31.1039 16.2755C31.9046 16.4882 32.3812 17.3097 32.1684 18.1104C31.9557 18.911 31.1342 19.3876 30.3335 19.1749C27.1423 18.3269 24.2212 18.1135 21.7358 18.3677C22.7666 21.2537 23.6845 24.5058 24.6516 28.4992C24.8466 29.3044 24.3519 30.1151 23.5468 30.3101C22.7416 30.5051 21.9309 30.0105 21.7359 29.2053C20.7321 25.0605 19.7988 21.7974 18.7564 18.9504C18.5611 19.0096 18.3702 19.0723 18.184 19.1384C14.7991 20.3457 11.4836 22.9274 8.05876 27.804C7.58263 28.4819 6.64708 28.6455 5.96915 28.1694C5.29121 27.6932 5.12761 26.7577 5.60373 26.0798C9.26601 20.8651 13.0377 17.7885 17.1774 16.3123L17.1795 16.3116C17.3314 16.2577 17.4853 16.2057 17.6411 16.1558C17.518 15.8728 17.393 15.5928 17.2657 15.3153C17.1457 15.0537 17.0237 14.794 16.8994 14.5357C12.7634 15.8024 7.94645 16.3192 2.31713 16.4539C1.48894 16.4737 0.801491 15.8184 0.781673 14.9902C0.761854 14.162 1.41717 13.4746 2.24536 13.4548C7.51704 13.3286 11.8531 12.8605 15.4844 11.8259C14.0966 9.36002 12.4219 6.8619 10.2687 3.89083C9.78261 3.22003 9.93231 2.28216 10.6031 1.79602Z"/>
</symbol><symbol viewBox="0 0 20 33" id="facebook" xmlns="http://www.w3.org/2000/svg">
<path fill-rule="evenodd" clip-rule="evenodd" d="M7.65835 2.99177C9.30711 1.34301 11.5433 0.416748 13.875 0.416748H18.25C19.0784 0.416748 19.75 1.08832 19.75 1.91675V7.75008C19.75 8.57851 19.0784 9.25008 18.25 9.25008H13.9167V12.0834H18.25C18.7119 12.0834 19.148 12.2962 19.4323 12.6603C19.7166 13.0244 19.8172 13.4991 19.7052 13.9472L18.2469 19.7806C18.0799 20.4483 17.48 20.9167 16.7917 20.9167H13.9167V31.0834C13.9167 31.9118 13.2451 32.5834 12.4167 32.5834H6.58333C5.75491 32.5834 5.08333 31.9118 5.08333 31.0834V20.9167H2.20833C1.3799 20.9167 0.708332 20.2452 0.708332 19.4167V13.5834C0.708332 12.755 1.3799 12.0834 2.20833 12.0834H5.08333V9.20841C5.08333 6.87672 6.00959 4.64052 7.65835 2.99177ZM13.875 3.41675C12.339 3.41675 10.8658 4.02694 9.77967 5.11309C8.69352 6.19924 8.08333 7.67237 8.08333 9.20841V13.5834C8.08333 14.4118 7.41176 15.0834 6.58333 15.0834H3.70833V17.9167H6.58333C7.41176 17.9167 8.08333 18.5883 8.08333 19.4167V29.5834H10.9167V19.4167C10.9167 18.5883 11.5882 17.9167 12.4167 17.9167H15.6205L16.3288 15.0834H12.4167C11.5882 15.0834 10.9167 14.4118 10.9167 13.5834V9.20841C10.9167 8.42381 11.2283 7.67135 11.7831 7.11656C12.3379 6.56176 13.0904 6.25008 13.875 6.25008H16.75V3.41675H13.875Z"/>
</symbol><symbol viewBox="0 0 33 33" id="instagram" xmlns="http://www.w3.org/2000/svg">
<path fill-rule="evenodd" clip-rule="evenodd" d="M9.20834 3.41675C6.00969 3.41675 3.41667 6.00977 3.41667 9.20841V23.7917C3.41667 26.9904 6.00969 29.5834 9.20834 29.5834H23.7917C26.9903 29.5834 29.5833 26.9904 29.5833 23.7917V9.20841C29.5833 6.00977 26.9903 3.41675 23.7917 3.41675H9.20834ZM0.416672 9.20841C0.416672 4.35291 4.35283 0.416748 9.20834 0.416748H23.7917C28.6472 0.416748 32.5833 4.35291 32.5833 9.20841V23.7917C32.5833 28.6472 28.6472 32.5834 23.7917 32.5834H9.20834C4.35283 32.5834 0.416672 28.6472 0.416672 23.7917V9.20841Z"/>
<path fill-rule="evenodd" clip-rule="evenodd" d="M17.1987 12.1504C16.2971 12.0167 15.3763 12.1707 14.5673 12.5905C13.7583 13.0103 13.1022 13.6745 12.6924 14.4886C12.2826 15.3028 12.14 16.2254 12.2848 17.1253C12.4296 18.0252 12.8545 18.8565 13.499 19.501C14.1435 20.1455 14.9748 20.5704 15.8747 20.7152C16.7746 20.86 17.6972 20.7173 18.5113 20.3075C19.3255 19.8978 19.9897 19.2417 20.4095 18.4327C20.8293 17.6236 20.9833 16.7028 20.8496 15.8012C20.7132 14.8816 20.2847 14.0301 19.6272 13.3727C18.9698 12.7153 18.1184 12.2868 17.1987 12.1504ZM13.1856 9.92762C14.5547 9.21721 16.113 8.95659 17.6388 9.18284C19.1951 9.41363 20.636 10.1389 21.7486 11.2514C22.8611 12.364 23.5863 13.8048 23.8171 15.3612C24.0434 16.887 23.7828 18.4452 23.0723 19.8144C22.3619 21.1835 21.2379 22.2938 19.8601 22.9872C18.4823 23.6807 16.9209 23.9221 15.3981 23.6771C13.8752 23.432 12.4683 22.713 11.3777 21.6223C10.287 20.5316 9.56796 19.1248 9.32291 17.6019C9.07786 16.079 9.31924 14.5176 10.0127 13.1399C10.7062 11.7621 11.8165 10.638 13.1856 9.92762Z"/>
<path fill-rule="evenodd" clip-rule="evenodd" d="M23.0208 8.47925C23.0208 7.65082 23.6924 6.97925 24.5208 6.97925H24.5354C25.3639 6.97925 26.0354 7.65082 26.0354 8.47925C26.0354 9.30768 25.3639 9.97925 24.5354 9.97925H24.5208C23.6924 9.97925 23.0208 9.30768 23.0208 8.47925Z"/>
</symbol><symbol viewBox="0 0 32 32" id="search" xmlns="http://www.w3.org/2000/svg">
<path fill-rule="evenodd" clip-rule="evenodd" d="M14.3333 2C7.52182 2 2 7.52182 2 14.3333C2 21.1448 7.52182 26.6667 14.3333 26.6667C21.1448 26.6667 26.6667 21.1448 26.6667 14.3333C26.6667 7.52182 21.1448 2 14.3333 2ZM0 14.3333C0 6.41725 6.41725 0 14.3333 0C22.2494 0 28.6667 6.41725 28.6667 14.3333C28.6667 22.2494 22.2494 28.6667 14.3333 28.6667C6.41725 28.6667 0 22.2494 0 14.3333Z"/>
<path fill-rule="evenodd" clip-rule="evenodd" d="M23.0429 23.0429C23.4334 22.6524 24.0666 22.6524 24.4571 23.0429L31.7071 30.2929C32.0977 30.6834 32.0977 31.3166 31.7071 31.7071C31.3166 32.0976 30.6834 32.0976 30.2929 31.7071L23.0429 24.4571C22.6524 24.0666 22.6524 23.4334 23.0429 23.0429Z"/>
</symbol><symbol viewBox="0 0 35 31" id="tw" xmlns="http://www.w3.org/2000/svg">
<path fill-rule="evenodd" clip-rule="evenodd" d="M21.1681 1.38845C22.7056 0.801628 24.3862 0.701148 25.9827 1.1006C27.244 1.41621 28.4048 2.03188 29.3691 2.88889C30.5415 2.45566 31.6537 1.87115 32.6771 1.14927L33.5417 2.37502L34.9991 2.72994C34.4993 4.78192 33.4991 6.67374 32.0928 8.2387C32.1135 8.46929 32.1242 8.70079 32.125 8.93256L32.125 8.93752C32.125 17.8478 27.8343 24.3886 21.6683 27.6705C15.5389 30.9329 7.70714 30.8958 0.729866 27.0196C0.122649 26.6822 -0.173519 25.9721 0.0140535 25.3033C0.201626 24.6345 0.823865 24.1819 1.51795 24.2095C3.94517 24.3061 6.34819 23.8296 8.53764 22.8342C6.37492 21.4871 4.81278 19.8918 3.723 18.1711C2.25466 15.8527 1.70068 13.3971 1.6005 11.1931C1.50062 8.99574 1.84966 7.01774 2.2164 5.5997C2.40067 4.8872 2.59188 4.30659 2.73934 3.89871C2.81316 3.69453 2.87627 3.53293 2.92244 3.41897C2.94553 3.36197 2.96441 3.31682 2.9783 3.28416L2.99531 3.24457L3.00084 3.23194L3.00282 3.22743L3.00362 3.22563C3.00396 3.22486 3.00428 3.22414 4.375 3.83335L5.60253 2.97128C6.93375 4.86686 8.7131 6.40379 10.7821 7.44519C12.4144 8.26675 14.1869 8.7598 15.9994 8.90187C15.9978 7.29093 16.4805 5.71581 17.3862 4.3817C18.3105 3.02013 19.6307 1.97528 21.1681 1.38845ZM4.9889 6.89706C4.72959 8.05126 4.52667 9.50059 4.59741 11.0569C4.67952 12.8634 5.12814 14.7828 6.25746 16.5659C7.38074 18.3395 9.23448 20.0692 12.2759 21.421C12.7736 21.6422 13.1123 22.1158 13.1607 22.6583C13.2092 23.2008 12.9597 23.7269 12.5091 24.0328C10.9282 25.1059 9.20114 25.9202 7.39247 26.4573C11.9566 27.5832 16.5201 27.0122 20.2588 25.0222C25.3944 22.2888 29.1243 16.7991 29.125 8.93978C29.1238 8.62732 29.0937 8.31564 29.035 8.00873C28.941 7.51693 29.0986 7.01066 29.4551 6.65909C29.7441 6.3741 30.014 6.07235 30.2637 5.75585C29.977 5.85893 29.6873 5.95455 29.395 6.04256C28.83 6.21268 28.2178 6.03581 27.8307 5.59062C27.154 4.8126 26.2548 4.26116 25.2545 4.01088C24.2542 3.7606 23.2012 3.82356 22.2379 4.19124C21.2746 4.55891 20.4474 5.21357 19.8683 6.06667C19.2892 6.91977 18.986 7.93015 18.9999 8.96116L19 8.98127V10.4396C19 11.2529 18.3519 11.918 17.5389 11.9391C14.7288 12.012 11.9443 11.3887 9.43333 10.1249C7.78146 9.29345 6.28173 8.20174 4.9889 6.89706Z"/>
</symbol></svg>